<?xml version="1.0" encoding="UTF-8" standalone="no"?>
<!DOCTYPE svg PUBLIC "-//W3C//DTD SVG 20010904//EN"
"http://www.w3.org/TR/2001/REC-SVG-20010904/DTD/svg10.dtd">
<!-- Created with Sodipodi ("http://www.sodipodi.com/") -->
<svg
   width="704pt"
   height="576pt"
   viewBox="0 0 256 256"
   style="overflow:visible;enable-background:new 0 0 256 256"
   xml:space="preserve"
   id="svg3469"
   sodipodi:version="0.33"
   sodipodi:docname="Image-Error.svg"
   sodipodi:docbase="."
   xmlns="http://www.w3.org/2000/svg"
   xmlns:sodipodi="http://sodipodi.sourceforge.net/DTD/sodipodi-0.dtd"
   xmlns:xml="http://www.w3.org/XML/1998/namespace"
   xmlns:xlink="http://www.w3.org/1999/xlink">
  <defs
   id="defs3579">
    <linearGradient
   id="XMLID_1_"
   gradientUnits="userSpaceOnUse"
   x1="128.9995"
   y1="11"
   x2="128.9995"
   y2="245.0005">
      <stop
   offset="0"
   style="stop-color:#494949"
   id="stop3476" />




      <stop
   offset="1"
   style="stop-color:#000000"
   id="stop3477" />




    </linearGradient>




    <linearGradient
   id="XMLID_2_"
   gradientUnits="userSpaceOnUse"
   x1="29.0532"
   y1="29.0532"
   x2="226.9471"
   y2="226.9471">
      <stop
   offset="0"
   style="stop-color:#FFFFFF"
   id="stop3484" />




      <stop
   offset="1"
   style="stop-color:#DADADA"
   id="stop3485" />




    </linearGradient>




  </defs>



  <sodipodi:namedview
   id="base">
  <sodipodi:guide
   orientation="horizontal"
   position="287.129913"
   id="guide2108" />

  <sodipodi:guide
   orientation="vertical"
   position="29.7764359"
   id="guide2109" />

  <sodipodi:guide
   orientation="vertical"
   position="676.350464"
   id="guide2110" />

  <sodipodi:guide
   orientation="horizontal"
   position="550.864075"
   id="guide2111" />

  <sodipodi:guide
   orientation="horizontal"
   position="31.9033241"
   id="guide2112" />

</sodipodi:namedview>



  <path
   style="font-size:12;fill:none;"
   d="M 222.4303 159.0556 L 118.0510 159.0556 L 118.0510 34.51719 L 222.4303 34.51719 L 222.4303 159.0556 z "
   id="path3490" />



  <g
   id="g3491"
   style="font-size:12;stroke:#000000;"
   transform="matrix(0.583057,0,0,0.695663,106.1162,4.982203)">
    <path
   style="opacity:0.2;stroke:none;"
   d="M72.626,58.727c-3.336,0-6.049,2.713-6.049,6.048v132.323c0,3.335,2.713,6.048,6.049,6.048h115.445     c3.335,0,6.049-2.713,6.049-6.048V64.774c0-3.335-2.714-6.048-6.049-6.048H72.626z"
   id="path3492" />




    <path
   style="opacity:0.2;stroke:none;"
   d="M71.451,56.378c-3.335,0-6.048,2.713-6.048,6.049v132.322c0,3.335,2.713,6.048,6.048,6.048h115.445     c3.335,0,6.049-2.713,6.049-6.048V62.427c0-3.336-2.714-6.049-6.049-6.049H71.451z"
   id="path3493" />




    <path
   style="opacity:0.2;stroke:none;"
   d="M69.103,55.203c-3.335,0-6.049,2.713-6.049,6.048v132.323c0,3.335,2.714,6.048,6.049,6.048h115.445     c3.335,0,6.049-2.713,6.049-6.048V61.251c0-3.335-2.714-6.048-6.049-6.048H69.103z"
   id="path3494" />




    <linearGradient
   id="XMLID_3_"
   gradientUnits="userSpaceOnUse"
   x1="61.8799"
   y1="125.064"
   x2="189.4219"
   y2="125.064">
      <stop
   offset="0"
   style="stop-color:#616161"
   id="stop3496" />




      <stop
   offset="1"
   style="stop-color:#464646"
   id="stop3497" />




    </linearGradient>




    <path
   style="fill:url(#XMLID_3_);stroke:none;"
   d="M67.928,52.854c-3.335,0-6.048,2.713-6.048,6.049v132.322c0,3.335,2.713,6.048,6.048,6.048h115.444     c3.336,0,6.05-2.713,6.05-6.048V58.903c0-3.336-2.714-6.049-6.05-6.049H67.928z"
   id="path3501" />




    <path
   style="fill:#FFFFFF;stroke:none;"
   d="M184.725,191.226c0,0.747-0.606,1.351-1.353,1.351H67.928c-0.745,0-1.351-0.604-1.351-1.351V58.903     c0-0.746,0.605-1.352,1.351-1.352h115.444c0.746,0,1.353,0.605,1.353,1.352V191.226z"
   id="path3502" />




    <linearGradient
   id="XMLID_4_"
   gradientUnits="userSpaceOnUse"
   x1="233.4971"
   y1="232.6162"
   x2="51.0675"
   y2="50.1867">
      <stop
   offset="0"
   style="stop-color:#CECEDB"
   id="stop3504" />




      <stop
   offset="0.691"
   style="stop-color:#E9E9EF"
   id="stop3505" />




      <stop
   offset="1"
   style="stop-color:#FFFFFF"
   id="stop3506" />




    </linearGradient>




    <path
   style="fill:url(#XMLID_4_);stroke:none;"
   d="M69.954,60.635c0,4.134,0,123.846,0,127.978c4.104,0,106.998,0,111.101,0c0-4.132,0-123.844,0-127.978     C176.952,60.635,74.058,60.635,69.954,60.635z"
   id="path3512" />




    <linearGradient
   id="XMLID_5_"
   gradientUnits="userSpaceOnUse"
   x1="-654.9922"
   y1="23.1128"
   x2="-520.0903"
   y2="23.1128"
   gradientTransform="matrix(0 1 -1 0 148.7637 686.498)">
      <stop
   offset="0"
   style="stop-color:#BDBDCF"
   id="stop3514" />




      <stop
   offset="0.1923"
   style="stop-color:#CCCCDA"
   id="stop3515" />




      <stop
   offset="0.7201"
   style="stop-color:#F1F1F5"
   id="stop3516" />




      <stop
   offset="1"
   style="stop-color:#FFFFFF"
   id="stop3517" />




    </linearGradient>




    <path
   style="fill:url(#XMLID_5_);stroke:none;"
   d="M176.563,67.165c-3.289,0-98.536,0-101.823,0c0,3.266,0,85.131,0,88.396c3.287,0,98.534,0,101.823,0     C176.563,152.296,176.563,70.431,176.563,67.165z"
   id="path3521" />




    <path
   style="stroke:none;"
   d="M78.46,70.886c0,6.529,0,74.425,0,80.955c6.646,0,87.734,0,94.381,0c0-6.53,0-74.426,0-80.955     C166.194,70.886,85.106,70.886,78.46,70.886z"
   id="path3522" />




    <radialGradient
   id="XMLID_6_"
   cx="109.7783"
   cy="116.7822"
   r="66.1491"
   fx="109.7783"
   fy="116.7822"
   gradientUnits="userSpaceOnUse">
      <stop
   offset="0"
   style="stop-color:#B1E1FF"
   id="stop3524" />




      <stop
   offset="0.1441"
   style="stop-color:#AEDFFF"
   id="stop3525" />




      <stop
   offset="0.2661"
   style="stop-color:#A3D9FF"
   id="stop3526" />




      <stop
   offset="0.38"
   style="stop-color:#92CFFF"
   id="stop3527" />




      <stop
   offset="0.489"
   style="stop-color:#79C1FF"
   id="stop3528" />




      <stop
   offset="0.5937"
   style="stop-color:#5AAEFF"
   id="stop3529" />




      <stop
   offset="0.6011"
   style="stop-color:#57ADFF"
   id="stop3530" />




      <stop
   offset="1"
   style="stop-color:#0035ED"
   id="stop3531" />




    </radialGradient>




    <path
   style="fill:url(#XMLID_6_);stroke:none;"
   d="M80.94,73.367c0,4.515,0,71.477,0,75.993c4.577,0,84.844,0,89.42,0c0-4.517,0-71.479,0-75.993     C165.784,73.367,85.518,73.367,80.94,73.367z"
   id="path3537" />




    <linearGradient
   id="XMLID_7_"
   gradientUnits="userSpaceOnUse"
   x1="100.4385"
   y1="122.5811"
   x2="118.1257"
   y2="104.8938">
      <stop
   offset="0"
   style="stop-color:#FFFFFF"
   id="stop3539" />




      <stop
   offset="1"
   style="stop-color:#E9E9EF"
   id="stop3540" />




    </linearGradient>




    <path
   style="fill:url(#XMLID_7_);stroke:none;"
   d="M96.774,113.736c0,6.907,5.6,12.508,12.507,12.508s12.506-5.601,12.506-12.508     s-5.599-12.507-12.506-12.507S96.774,106.829,96.774,113.736z"
   id="path3544" />




    <path
   style="stroke:none;"
   d="M78.46,137.866c0,1.127,0,12.845,0,13.975c6.646,0,87.734,0,94.381,0c0-1.13,0-12.848,0-13.975     C166.194,137.866,85.106,137.866,78.46,137.866z"
   id="path3545" />




    <path
   style="stroke:none;"
   d="M100.665,117.415h-8.486v25.92h8.486V117.415z"
   id="path3546" />




    <path
   style="stroke:none;"
   d="M108.007,127.737h-8.488v15.828h8.488V127.737z"
   id="path3547" />




    <path
   style="stroke:none;"
   d="M118.099,144.023h-11.01v-10.78h11.01V144.023z"
   id="path3548" />




    <path
   style="stroke:none;"
   d="M123.374,119.938h-6.65v19.499h6.65V119.938z"
   id="path3549" />




    <path
   style="stroke:none;"
   d="M139.892,144.023h-17.205v-15.599h17.205V144.023z"
   id="path3550" />




    <path
   style="stroke:none;"
   d="M145.396,108.927h-7.34v32.116h7.34V108.927z"
   id="path3551" />




    <path
   style="stroke:none;"
   d="M80.708,144.023h11.699v-19.817H80.708V144.023z"
   id="path3552" />




    <path
   style="stroke:none;"
   d="M154.571,143.104h-11.01v-23.396h11.01V143.104z"
   id="path3553" />




    <path
   style="stroke:none;"
   d="M170.683,145.87h-12.664v-17.662h12.664V145.87z"
   id="path3554" />




    <path
   style="stroke:none;"
   d="M169.024,142.416h-7.57v-25.003h7.57V142.416z"
   id="path3555" />




    <path
   style="stroke:none;"
   d="M130.486,138.059h-7.569v-25.005h7.569V138.059z"
   id="path3556" />




    <path
   style="stroke:none;"
   d="M80.938,144.482h88.086v-7.8H80.938V144.482z"
   id="path3557" />




    <path
   style="fill:#FFF030;stroke:none;"
   d="M94.063,121.743h2.016v-2.016h-2.016V121.743z"
   id="path3558" />




    <path
   style="fill:#FFF030;stroke:none;"
   d="M94.063,126.23h2.016v-2.016h-2.016V126.23z"
   id="path3559" />




    <path
   style="fill:#FFF030;stroke:none;"
   d="M94.063,135.205h2.016v-2.016h-2.016V135.205z"
   id="path3560" />




    <path
   style="fill:#FFF030;stroke:none;"
   d="M125.874,122.173h2.015v-2.016h-2.015V122.173z"
   id="path3561" />




    <path
   style="fill:#FFF030;stroke:none;"
   d="M125.874,131.147h2.015v-2.016h-2.015V131.147z"
   id="path3562" />




    <path
   style="fill:#FFF030;stroke:none;"
   d="M119.207,124.662h2.016v-2.015h-2.016V124.662z"
   id="path3563" />




    <path
   style="fill:#FFF030;stroke:none;"
   d="M119.207,129.149h2.016v-2.016h-2.016V129.149z"
   id="path3564" />




    <path
   style="fill:#FFF030;stroke:none;"
   d="M119.207,133.638h2.016v-2.016h-2.016V133.638z"
   id="path3565" />




    <path
   style="fill:#FFF030;stroke:none;"
   d="M102.489,132.554h2.015v-2.018h-2.015V132.554z"
   id="path3566" />




    <path
   style="fill:#FFF030;stroke:none;"
   d="M102.489,137.038h2.015v-2.015h-2.015V137.038z"
   id="path3567" />




    <path
   style="fill:#FFF030;stroke:none;"
   d="M82.507,128.463h2.015v-2.016h-2.015V128.463z"
   id="path3568" />




    <path
   style="fill:#FFF030;stroke:none;"
   d="M82.507,132.95h2.015v-2.017h-2.015V132.95z"
   id="path3569" />




    <path
   style="fill:#FFF030;stroke:none;"
   d="M149.356,128.747h2.015v-2.016h-2.015V128.747z"
   id="path3570" />




    <path
   style="fill:#FFF030;stroke:none;"
   d="M140.674,114.493h2.015v-2.017h-2.015V114.493z"
   id="path3571" />




    <path
   style="fill:#FFF030;stroke:none;"
   d="M140.674,118.979h2.015v-2.016h-2.015V118.979z"
   id="path3572" />




    <path
   style="fill:#FFF030;stroke:none;"
   d="M140.674,123.468h2.015v-2.016h-2.015V123.468z"
   id="path3573" />




    <path
   style="fill:#FFF030;stroke:none;"
   d="M140.674,127.954h2.015v-2.016h-2.015V127.954z"
   id="path3574" />




    <path
   style="fill:#FFF030;stroke:none;"
   d="M164.085,122.089h2.016v-2.016h-2.016V122.089z"
   id="path3575" />




    <path
   style="fill:#FFF030;stroke:none;"
   d="M164.085,131.065h2.016v-2.016h-2.016V131.065z"
   id="path3576" />




    <path
   style="fill:#FFF030;stroke:none;"
   d="M129.602,134.712v2.016h2.016v-2.016H129.602z"
   id="path3577" />




  </g>



  <path
   style="font-size:12;fill:none;"
   d="M 226.0942 146.8087 L 135.6992 209.0778 L 83.50963 101.2246 L 173.9046 38.95533 L 226.0942 146.8087 z "
   id="path1323" />



  <g
   id="g1324"
   style="font-size:12;stroke:#000000;"
   transform="matrix(0.504941,-0.347832,0.291527,0.602462,63.36050,88.66474)">
    <path
   style="opacity:0.2;stroke:none;"
   d="M72.626,58.727c-3.336,0-6.049,2.713-6.049,6.048v132.323c0,3.335,2.713,6.048,6.049,6.048h115.445     c3.335,0,6.049-2.713,6.049-6.048V64.774c0-3.335-2.714-6.048-6.049-6.048H72.626z"
   id="path1325" />




    <path
   style="opacity:0.2;stroke:none;"
   d="M71.451,56.378c-3.335,0-6.048,2.713-6.048,6.049v132.322c0,3.335,2.713,6.048,6.048,6.048h115.445     c3.335,0,6.049-2.713,6.049-6.048V62.427c0-3.336-2.714-6.049-6.049-6.049H71.451z"
   id="path1326" />




    <path
   style="opacity:0.2;stroke:none;"
   d="M69.103,55.203c-3.335,0-6.049,2.713-6.049,6.048v132.323c0,3.335,2.714,6.048,6.049,6.048h115.445     c3.335,0,6.049-2.713,6.049-6.048V61.251c0-3.335-2.714-6.048-6.049-6.048H69.103z"
   id="path1327" />




    <linearGradient
   id="linearGradient1328"
   gradientUnits="userSpaceOnUse"
   x1="61.8799"
   y1="125.064"
   x2="189.4219"
   y2="125.064">
      <stop
   offset="0"
   style="stop-color:#616161"
   id="stop1329" />




      <stop
   offset="1"
   style="stop-color:#464646"
   id="stop1330" />




    </linearGradient>




    <path
   style="fill:url(#XMLID_3_);stroke:none;"
   d="M67.928,52.854c-3.335,0-6.048,2.713-6.048,6.049v132.322c0,3.335,2.713,6.048,6.048,6.048h115.444     c3.336,0,6.05-2.713,6.05-6.048V58.903c0-3.336-2.714-6.049-6.05-6.049H67.928z"
   id="path1331" />




    <path
   style="fill:#FFFFFF;stroke:none;"
   d="M184.725,191.226c0,0.747-0.606,1.351-1.353,1.351H67.928c-0.745,0-1.351-0.604-1.351-1.351V58.903     c0-0.746,0.605-1.352,1.351-1.352h115.444c0.746,0,1.353,0.605,1.353,1.352V191.226z"
   id="path1332" />




    <linearGradient
   id="linearGradient1333"
   gradientUnits="userSpaceOnUse"
   x1="233.4971"
   y1="232.6162"
   x2="51.0675"
   y2="50.1867">
      <stop
   offset="0"
   style="stop-color:#CECEDB"
   id="stop1334" />




      <stop
   offset="0.691"
   style="stop-color:#E9E9EF"
   id="stop1335" />




      <stop
   offset="1"
   style="stop-color:#FFFFFF"
   id="stop1336" />




    </linearGradient>




    <path
   style="fill:url(#XMLID_4_);stroke:none;"
   d="M69.954,60.635c0,4.134,0,123.846,0,127.978c4.104,0,106.998,0,111.101,0c0-4.132,0-123.844,0-127.978     C176.952,60.635,74.058,60.635,69.954,60.635z"
   id="path1337" />




    <linearGradient
   id="linearGradient1338"
   gradientUnits="userSpaceOnUse"
   x1="-654.9922"
   y1="23.1128"
   x2="-520.0903"
   y2="23.1128"
   gradientTransform="matrix(0 1 -1 0 148.7637 686.498)">
      <stop
   offset="0"
   style="stop-color:#BDBDCF"
   id="stop1339" />




      <stop
   offset="0.1923"
   style="stop-color:#CCCCDA"
   id="stop1340" />




      <stop
   offset="0.7201"
   style="stop-color:#F1F1F5"
   id="stop1341" />




      <stop
   offset="1"
   style="stop-color:#FFFFFF"
   id="stop1342" />




    </linearGradient>




    <path
   style="fill:url(#XMLID_5_);stroke:none;"
   d="M176.563,67.165c-3.289,0-98.536,0-101.823,0c0,3.266,0,85.131,0,88.396c3.287,0,98.534,0,101.823,0     C176.563,152.296,176.563,70.431,176.563,67.165z"
   id="path1343" />




    <path
   style="stroke:none;"
   d="M78.46,70.886c0,6.529,0,74.425,0,80.955c6.646,0,87.734,0,94.381,0c0-6.53,0-74.426,0-80.955     C166.194,70.886,85.106,70.886,78.46,70.886z"
   id="path1344" />




    <radialGradient
   id="radialGradient1345"
   cx="109.7783"
   cy="116.7822"
   r="66.1491"
   fx="109.7783"
   fy="116.7822"
   gradientUnits="userSpaceOnUse">
      <stop
   offset="0"
   style="stop-color:#B1E1FF"
   id="stop1346" />




      <stop
   offset="0.1441"
   style="stop-color:#AEDFFF"
   id="stop1347" />




      <stop
   offset="0.2661"
   style="stop-color:#A3D9FF"
   id="stop1348" />




      <stop
   offset="0.38"
   style="stop-color:#92CFFF"
   id="stop1349" />




      <stop
   offset="0.489"
   style="stop-color:#79C1FF"
   id="stop1350" />




      <stop
   offset="0.5937"
   style="stop-color:#5AAEFF"
   id="stop1351" />




      <stop
   offset="0.6011"
   style="stop-color:#57ADFF"
   id="stop1352" />




      <stop
   offset="1"
   style="stop-color:#0035ED"
   id="stop1353" />




    </radialGradient>




    <path
   style="fill:url(#XMLID_6_);stroke:none;"
   d="M80.94,73.367c0,4.515,0,71.477,0,75.993c4.577,0,84.844,0,89.42,0c0-4.517,0-71.479,0-75.993     C165.784,73.367,85.518,73.367,80.94,73.367z"
   id="path1354" />




    <linearGradient
   id="linearGradient1355"
   gradientUnits="userSpaceOnUse"
   x1="100.4385"
   y1="122.5811"
   x2="118.1257"
   y2="104.8938">
      <stop
   offset="0"
   style="stop-color:#FFFFFF"
   id="stop1356" />




      <stop
   offset="1"
   style="stop-color:#E9E9EF"
   id="stop1357" />




    </linearGradient>




    <path
   style="fill:url(#XMLID_7_);stroke:none;"
   d="M96.774,113.736c0,6.907,5.6,12.508,12.507,12.508s12.506-5.601,12.506-12.508     s-5.599-12.507-12.506-12.507S96.774,106.829,96.774,113.736z"
   id="path1358" />




    <path
   style="stroke:none;"
   d="M78.46,137.866c0,1.127,0,12.845,0,13.975c6.646,0,87.734,0,94.381,0c0-1.13,0-12.848,0-13.975     C166.194,137.866,85.106,137.866,78.46,137.866z"
   id="path1359" />




    <path
   style="stroke:none;"
   d="M100.665,117.415h-8.486v25.92h8.486V117.415z"
   id="path1360" />




    <path
   style="stroke:none;"
   d="M108.007,127.737h-8.488v15.828h8.488V127.737z"
   id="path1361" />




    <path
   style="stroke:none;"
   d="M118.099,144.023h-11.01v-10.78h11.01V144.023z"
   id="path1362" />




    <path
   style="stroke:none;"
   d="M123.374,119.938h-6.65v19.499h6.65V119.938z"
   id="path1363" />




    <path
   style="stroke:none;"
   d="M139.892,144.023h-17.205v-15.599h17.205V144.023z"
   id="path1364" />




    <path
   style="stroke:none;"
   d="M145.396,108.927h-7.34v32.116h7.34V108.927z"
   id="path1365" />




    <path
   style="stroke:none;"
   d="M80.708,144.023h11.699v-19.817H80.708V144.023z"
   id="path1366" />




    <path
   style="stroke:none;"
   d="M154.571,143.104h-11.01v-23.396h11.01V143.104z"
   id="path1367" />




    <path
   style="stroke:none;"
   d="M170.683,145.87h-12.664v-17.662h12.664V145.87z"
   id="path1368" />




    <path
   style="stroke:none;"
   d="M169.024,142.416h-7.57v-25.003h7.57V142.416z"
   id="path1369" />




    <path
   style="stroke:none;"
   d="M130.486,138.059h-7.569v-25.005h7.569V138.059z"
   id="path1370" />




    <path
   style="stroke:none;"
   d="M80.938,144.482h88.086v-7.8H80.938V144.482z"
   id="path1371" />




    <path
   style="fill:#FFF030;stroke:none;"
   d="M94.063,121.743h2.016v-2.016h-2.016V121.743z"
   id="path1372" />




    <path
   style="fill:#FFF030;stroke:none;"
   d="M94.063,126.23h2.016v-2.016h-2.016V126.23z"
   id="path1373" />




    <path
   style="fill:#FFF030;stroke:none;"
   d="M94.063,135.205h2.016v-2.016h-2.016V135.205z"
   id="path1374" />




    <path
   style="fill:#FFF030;stroke:none;"
   d="M125.874,122.173h2.015v-2.016h-2.015V122.173z"
   id="path1375" />




    <path
   style="fill:#FFF030;stroke:none;"
   d="M125.874,131.147h2.015v-2.016h-2.015V131.147z"
   id="path1376" />




    <path
   style="fill:#FFF030;stroke:none;"
   d="M119.207,124.662h2.016v-2.015h-2.016V124.662z"
   id="path1377" />




    <path
   style="fill:#FFF030;stroke:none;"
   d="M119.207,129.149h2.016v-2.016h-2.016V129.149z"
   id="path1378" />




    <path
   style="fill:#FFF030;stroke:none;"
   d="M119.207,133.638h2.016v-2.016h-2.016V133.638z"
   id="path1379" />




    <path
   style="fill:#FFF030;stroke:none;"
   d="M102.489,132.554h2.015v-2.018h-2.015V132.554z"
   id="path1380" />




    <path
   style="fill:#FFF030;stroke:none;"
   d="M102.489,137.038h2.015v-2.015h-2.015V137.038z"
   id="path1381" />




    <path
   style="fill:#FFF030;stroke:none;"
   d="M82.507,128.463h2.015v-2.016h-2.015V128.463z"
   id="path1382" />




    <path
   style="fill:#FFF030;stroke:none;"
   d="M82.507,132.95h2.015v-2.017h-2.015V132.95z"
   id="path1383" />




    <path
   style="fill:#FFF030;stroke:none;"
   d="M149.356,128.747h2.015v-2.016h-2.015V128.747z"
   id="path1384" />




    <path
   style="fill:#FFF030;stroke:none;"
   d="M140.674,114.493h2.015v-2.017h-2.015V114.493z"
   id="path1385" />




    <path
   style="fill:#FFF030;stroke:none;"
   d="M140.674,118.979h2.015v-2.016h-2.015V118.979z"
   id="path1386" />




    <path
   style="fill:#FFF030;stroke:none;"
   d="M140.674,123.468h2.015v-2.016h-2.015V123.468z"
   id="path1387" />




    <path
   style="fill:#FFF030;stroke:none;"
   d="M140.674,127.954h2.015v-2.016h-2.015V127.954z"
   id="path1388" />




    <path
   style="fill:#FFF030;stroke:none;"
   d="M164.085,122.089h2.016v-2.016h-2.016V122.089z"
   id="path1389" />




    <path
   style="fill:#FFF030;stroke:none;"
   d="M164.085,131.065h2.016v-2.016h-2.016V131.065z"
   id="path1390" />




    <path
   style="fill:#FFF030;stroke:none;"
   d="M129.602,134.712v2.016h2.016v-2.016H129.602z"
   id="path1391" />




  </g>



  <path
   style="font-size:12;fill:none;"
   d="M 223.0736 130.8574 L 170.8839 238.7107 L 80.48895 176.4417 L 132.6785 68.58834 L 223.0736 130.8574 z "
   id="path1392" />



  <g
   id="g1393"
   style="font-size:12;stroke:#000000;"
   transform="matrix(0.291527,-0.602462,0.504941,0.347832,60.33992,183.4832)">
    <path
   style="opacity:0.2;stroke:none;"
   d="M72.626,58.727c-3.336,0-6.049,2.713-6.049,6.048v132.323c0,3.335,2.713,6.048,6.049,6.048h115.445     c3.335,0,6.049-2.713,6.049-6.048V64.774c0-3.335-2.714-6.048-6.049-6.048H72.626z"
   id="path1394" />




    <path
   style="opacity:0.2;stroke:none;"
   d="M71.451,56.378c-3.335,0-6.048,2.713-6.048,6.049v132.322c0,3.335,2.713,6.048,6.048,6.048h115.445     c3.335,0,6.049-2.713,6.049-6.048V62.427c0-3.336-2.714-6.049-6.049-6.049H71.451z"
   id="path1395" />




    <path
   style="opacity:0.2;stroke:none;"
   d="M69.103,55.203c-3.335,0-6.049,2.713-6.049,6.048v132.323c0,3.335,2.714,6.048,6.049,6.048h115.445     c3.335,0,6.049-2.713,6.049-6.048V61.251c0-3.335-2.714-6.048-6.049-6.048H69.103z"
   id="path1396" />




    <linearGradient
   id="linearGradient1397"
   gradientUnits="userSpaceOnUse"
   x1="61.8799"
   y1="125.064"
   x2="189.4219"
   y2="125.064">
      <stop
   offset="0"
   style="stop-color:#616161"
   id="stop1398" />




      <stop
   offset="1"
   style="stop-color:#464646"
   id="stop1399" />




    </linearGradient>




    <path
   style="fill:url(#XMLID_3_);stroke:none;"
   d="M67.928,52.854c-3.335,0-6.048,2.713-6.048,6.049v132.322c0,3.335,2.713,6.048,6.048,6.048h115.444     c3.336,0,6.05-2.713,6.05-6.048V58.903c0-3.336-2.714-6.049-6.05-6.049H67.928z"
   id="path1400" />




    <path
   style="fill:#FFFFFF;stroke:none;"
   d="M184.725,191.226c0,0.747-0.606,1.351-1.353,1.351H67.928c-0.745,0-1.351-0.604-1.351-1.351V58.903     c0-0.746,0.605-1.352,1.351-1.352h115.444c0.746,0,1.353,0.605,1.353,1.352V191.226z"
   id="path1401" />




    <linearGradient
   id="linearGradient1402"
   gradientUnits="userSpaceOnUse"
   x1="233.4971"
   y1="232.6162"
   x2="51.0675"
   y2="50.1867">
      <stop
   offset="0"
   style="stop-color:#CECEDB"
   id="stop1403" />




      <stop
   offset="0.691"
   style="stop-color:#E9E9EF"
   id="stop1404" />




      <stop
   offset="1"
   style="stop-color:#FFFFFF"
   id="stop1405" />




    </linearGradient>




    <path
   style="fill:url(#XMLID_4_);stroke:none;"
   d="M69.954,60.635c0,4.134,0,123.846,0,127.978c4.104,0,106.998,0,111.101,0c0-4.132,0-123.844,0-127.978     C176.952,60.635,74.058,60.635,69.954,60.635z"
   id="path1406" />




    <linearGradient
   id="linearGradient1407"
   gradientUnits="userSpaceOnUse"
   x1="-654.9922"
   y1="23.1128"
   x2="-520.0903"
   y2="23.1128"
   gradientTransform="matrix(0 1 -1 0 148.7637 686.498)">
      <stop
   offset="0"
   style="stop-color:#BDBDCF"
   id="stop1408" />




      <stop
   offset="0.1923"
   style="stop-color:#CCCCDA"
   id="stop1409" />




      <stop
   offset="0.7201"
   style="stop-color:#F1F1F5"
   id="stop1410" />




      <stop
   offset="1"
   style="stop-color:#FFFFFF"
   id="stop1411" />




    </linearGradient>




    <path
   style="fill:url(#XMLID_5_);stroke:none;"
   d="M176.563,67.165c-3.289,0-98.536,0-101.823,0c0,3.266,0,85.131,0,88.396c3.287,0,98.534,0,101.823,0     C176.563,152.296,176.563,70.431,176.563,67.165z"
   id="path1412" />




    <path
   style="stroke:none;"
   d="M78.46,70.886c0,6.529,0,74.425,0,80.955c6.646,0,87.734,0,94.381,0c0-6.53,0-74.426,0-80.955     C166.194,70.886,85.106,70.886,78.46,70.886z"
   id="path1413" />




    <radialGradient
   id="radialGradient1414"
   cx="109.7783"
   cy="116.7822"
   r="66.1491"
   fx="109.7783"
   fy="116.7822"
   gradientUnits="userSpaceOnUse">
      <stop
   offset="0"
   style="stop-color:#B1E1FF"
   id="stop1415" />




      <stop
   offset="0.1441"
   style="stop-color:#AEDFFF"
   id="stop1416" />




      <stop
   offset="0.2661"
   style="stop-color:#A3D9FF"
   id="stop1417" />




      <stop
   offset="0.38"
   style="stop-color:#92CFFF"
   id="stop1418" />




      <stop
   offset="0.489"
   style="stop-color:#79C1FF"
   id="stop1419" />




      <stop
   offset="0.5937"
   style="stop-color:#5AAEFF"
   id="stop1420" />




      <stop
   offset="0.6011"
   style="stop-color:#57ADFF"
   id="stop1421" />




      <stop
   offset="1"
   style="stop-color:#0035ED"
   id="stop1422" />




    </radialGradient>




    <path
   style="fill:url(#XMLID_6_);stroke:none;"
   d="M80.94,73.367c0,4.515,0,71.477,0,75.993c4.577,0,84.844,0,89.42,0c0-4.517,0-71.479,0-75.993     C165.784,73.367,85.518,73.367,80.94,73.367z"
   id="path1423" />




    <linearGradient
   id="linearGradient1424"
   gradientUnits="userSpaceOnUse"
   x1="100.4385"
   y1="122.5811"
   x2="118.1257"
   y2="104.8938">
      <stop
   offset="0"
   style="stop-color:#FFFFFF"
   id="stop1425" />




      <stop
   offset="1"
   style="stop-color:#E9E9EF"
   id="stop1426" />




    </linearGradient>




    <path
   style="fill:url(#XMLID_7_);stroke:none;"
   d="M96.774,113.736c0,6.907,5.6,12.508,12.507,12.508s12.506-5.601,12.506-12.508     s-5.599-12.507-12.506-12.507S96.774,106.829,96.774,113.736z"
   id="path1427" />




    <path
   style="stroke:none;"
   d="M78.46,137.866c0,1.127,0,12.845,0,13.975c6.646,0,87.734,0,94.381,0c0-1.13,0-12.848,0-13.975     C166.194,137.866,85.106,137.866,78.46,137.866z"
   id="path1428" />




    <path
   style="stroke:none;"
   d="M100.665,117.415h-8.486v25.92h8.486V117.415z"
   id="path1429" />




    <path
   style="stroke:none;"
   d="M108.007,127.737h-8.488v15.828h8.488V127.737z"
   id="path1430" />




    <path
   style="stroke:none;"
   d="M118.099,144.023h-11.01v-10.78h11.01V144.023z"
   id="path1431" />




    <path
   style="stroke:none;"
   d="M123.374,119.938h-6.65v19.499h6.65V119.938z"
   id="path1432" />




    <path
   style="stroke:none;"
   d="M139.892,144.023h-17.205v-15.599h17.205V144.023z"
   id="path1433" />




    <path
   style="stroke:none;"
   d="M145.396,108.927h-7.34v32.116h7.34V108.927z"
   id="path1434" />




    <path
   style="stroke:none;"
   d="M80.708,144.023h11.699v-19.817H80.708V144.023z"
   id="path1435" />




    <path
   style="stroke:none;"
   d="M154.571,143.104h-11.01v-23.396h11.01V143.104z"
   id="path1436" />




    <path
   style="stroke:none;"
   d="M170.683,145.87h-12.664v-17.662h12.664V145.87z"
   id="path1437" />




    <path
   style="stroke:none;"
   d="M169.024,142.416h-7.57v-25.003h7.57V142.416z"
   id="path1438" />




    <path
   style="stroke:none;"
   d="M130.486,138.059h-7.569v-25.005h7.569V138.059z"
   id="path1439" />




    <path
   style="stroke:none;"
   d="M80.938,144.482h88.086v-7.8H80.938V144.482z"
   id="path1440" />




    <path
   style="fill:#FFF030;stroke:none;"
   d="M94.063,121.743h2.016v-2.016h-2.016V121.743z"
   id="path1441" />




    <path
   style="fill:#FFF030;stroke:none;"
   d="M94.063,126.23h2.016v-2.016h-2.016V126.23z"
   id="path1442" />




    <path
   style="fill:#FFF030;stroke:none;"
   d="M94.063,135.205h2.016v-2.016h-2.016V135.205z"
   id="path1443" />




    <path
   style="fill:#FFF030;stroke:none;"
   d="M125.874,122.173h2.015v-2.016h-2.015V122.173z"
   id="path1444" />




    <path
   style="fill:#FFF030;stroke:none;"
   d="M125.874,131.147h2.015v-2.016h-2.015V131.147z"
   id="path1445" />




    <path
   style="fill:#FFF030;stroke:none;"
   d="M119.207,124.662h2.016v-2.015h-2.016V124.662z"
   id="path1446" />




    <path
   style="fill:#FFF030;stroke:none;"
   d="M119.207,129.149h2.016v-2.016h-2.016V129.149z"
   id="path1447" />




    <path
   style="fill:#FFF030;stroke:none;"
   d="M119.207,133.638h2.016v-2.016h-2.016V133.638z"
   id="path1448" />




    <path
   style="fill:#FFF030;stroke:none;"
   d="M102.489,132.554h2.015v-2.018h-2.015V132.554z"
   id="path1449" />




    <path
   style="fill:#FFF030;stroke:none;"
   d="M102.489,137.038h2.015v-2.015h-2.015V137.038z"
   id="path1450" />




    <path
   style="fill:#FFF030;stroke:none;"
   d="M82.507,128.463h2.015v-2.016h-2.015V128.463z"
   id="path1451" />




    <path
   style="fill:#FFF030;stroke:none;"
   d="M82.507,132.95h2.015v-2.017h-2.015V132.95z"
   id="path1452" />




    <path
   style="fill:#FFF030;stroke:none;"
   d="M149.356,128.747h2.015v-2.016h-2.015V128.747z"
   id="path1453" />




    <path
   style="fill:#FFF030;stroke:none;"
   d="M140.674,114.493h2.015v-2.017h-2.015V114.493z"
   id="path1454" />




    <path
   style="fill:#FFF030;stroke:none;"
   d="M140.674,118.979h2.015v-2.016h-2.015V118.979z"
   id="path1455" />




    <path
   style="fill:#FFF030;stroke:none;"
   d="M140.674,123.468h2.015v-2.016h-2.015V123.468z"
   id="path1456" />




    <path
   style="fill:#FFF030;stroke:none;"
   d="M140.674,127.954h2.015v-2.016h-2.015V127.954z"
   id="path1457" />




    <path
   style="fill:#FFF030;stroke:none;"
   d="M164.085,122.089h2.016v-2.016h-2.016V122.089z"
   id="path1458" />




    <path
   style="fill:#FFF030;stroke:none;"
   d="M164.085,131.065h2.016v-2.016h-2.016V131.065z"
   id="path1459" />




    <path
   style="fill:#FFF030;stroke:none;"
   d="M129.602,134.712v2.016h2.016v-2.016H129.602z"
   id="path1460" />




  </g>



<g
   id="g2009"
   transform="matrix(2.357251,0,0,2.832578,34.95087,61.80306)">
  <defs
   id="defs232" />


  <sodipodi:namedview
   id="namedview2013" />


  <g
   id="Layer_1"
   stroke="#000000">
    <path
   id="path170"
   fill="none"
   stroke="none"
   d="M3.621,36.109l11.775-25.814c0.321-0.971,3.194-2.688,4.462-2.461l22.103,1.858    c-0.26-0.156-0.566-0.274-0.91-0.335L19.46,7.218c-1.269-0.226-4.141,1.491-4.462,2.461L3.224,35.494    c-0.183,0.553-0.011,1.106,0.406,1.521C3.528,36.729,3.519,36.42,3.621,36.109z" />


    <g
   id="Layer_2">
      <path
   id="path241"
   fill="none"
   stroke="none"
   d="M48,48H0V0h48V48z" />


    </g>


    <g
   id="g171" />


    <linearGradient
   id="path205_1_"
   gradientUnits="userSpaceOnUse"
   x1="-235.5874"
   y1="318.7158"
   x2="-234.9869"
   y2="318.1155"
   gradientTransform="matrix(0.3069 0 0 -0.3101 81.6819 119.6117)">
      <stop
   offset="0"
   style="stop-color:#FFFFFF"
   id="stop160" />


      <stop
   offset="0.3726"
   style="stop-color:#FDFDFD"
   id="stop161" />


      <stop
   offset="0.5069"
   style="stop-color:#F6F6F6"
   id="stop162" />


      <stop
   offset="0.6026"
   style="stop-color:#EBEBEB"
   id="stop163" />


      <stop
   offset="0.68"
   style="stop-color:#DADADA"
   id="stop164" />


      <stop
   offset="0.7463"
   style="stop-color:#C4C4C4"
   id="stop165" />


      <stop
   offset="0.805"
   style="stop-color:#A8A8A8"
   id="stop166" />


      <stop
   offset="0.8581"
   style="stop-color:#888888"
   id="stop167" />


      <stop
   offset="0.9069"
   style="stop-color:#626262"
   id="stop168" />


      <stop
   offset="0.9523"
   style="stop-color:#373737"
   id="stop169" />


      <stop
   offset="0.9926"
   style="stop-color:#090909"
   id="stop170" />


      <stop
   offset="1"
   style="stop-color:#000000"
   id="stop171" />


      
      
      
      
      
      
      
      
      
      
      
      
      
      
      
      
      
      
      
      
      
      
      
    </linearGradient>


    <path
   id="path205"
   fill="url(#path205_1_)"
   stroke="none"
   d="M10.011,20.379c-0.109-0.062-0.233-0.1-0.367-0.1    c-0.421,0-0.763,0.346-0.763,0.771c0,0.115,0.027,0.223,0.072,0.321C9.106,20.878,9.509,20.498,10.011,20.379z" />


    <path
   id="path206"
   opacity="0.36"
   fill="#999999"
   stroke="#999999"
   stroke-width="1.5343"
   stroke-miterlimit="1.2275"
   d="    M6.653,25.182c0,11.198,8.983,20.275,20.064,20.275c11.082,0,20.064-9.076,20.064-20.275c0-11.198-8.982-20.275-20.064-20.275    C15.636,4.906,6.653,13.984,6.653,25.182z" />


    <path
   fill="#990000"
   stroke="none"
   d="M2.046,22.701c0,11.731,9.449,21.275,21.064,21.275c11.615,0,21.065-9.544,21.065-21.275    S34.726,1.425,23.11,1.425C11.496,1.426,2.046,10.97,2.046,22.701z"
   id="path197" />


    <linearGradient
   id="path213_1_"
   gradientUnits="userSpaceOnUse"
   x1="-232.3296"
   y1="353.9814"
   x2="-137.7065"
   y2="259.358"
   gradientTransform="matrix(0.3069 0 0 -0.3101 81.6819 119.6117)">
      <stop
   offset="0"
   style="stop-color:#FB7462"
   id="stop199" />


      <stop
   offset="1"
   style="stop-color:#FC2829"
   id="stop200" />


      
      
      
    </linearGradient>


    <path
   id="path213"
   fill="url(#path213_1_)"
   stroke="none"
   d="M3.046,22.701c0,11.198,8.983,20.275,20.064,20.275    c11.082,0,20.065-9.077,20.065-20.275S34.192,2.425,23.11,2.425C12.03,2.426,3.046,11.503,3.046,22.701z" />


    <radialGradient
   id="path239_1_"
   cx="-141.856"
   cy="240.4365"
   r="94.1356"
   fx="-141.856"
   fy="240.4365"
   gradientTransform="matrix(0.3069 0 0 -0.3101 81.6819 119.6117)"
   gradientUnits="userSpaceOnUse">
      <stop
   offset="0"
   style="stop-color:#000000"
   id="stop206" />


      <stop
   offset="1"
   style="stop-color:#FF3333"
   id="stop207" />


      
      
      
    </radialGradient>


    <path
   id="path239"
   opacity="0.4"
   fill="url(#path239_1_)"
   stroke="none"
   d="M41.881,18.448c-2.748-1.396-5.852-2.184-9.139-2.184    c-3.571,0-6.928,0.929-9.846,2.561h15.301v0.446h0.387v8.345H14.529c-1.383,2.778-2.163,5.917-2.163,9.239    c0,1.053,0.079,2.086,0.229,3.097c2.839,1.556,6.093,2.439,9.549,2.439c11.082,0,20.065-9.078,20.065-20.276    C42.21,20.864,42.097,19.638,41.881,18.448z" />


    <g
   id="g214">
      <path
   id="path215"
   fill="#B11C1D"
   stroke="none"
   d="M39.549,28.201H6.989v-8.344h32.56V28.201z" />


      <g
   id="g216">
        <path
   id="path217"
   fill="#FB9A86"
   stroke="none"
   d="M39.162,27.812H6.672v-8.4h32.49V27.812z" />


        <path
   id="path218"
   fill="#FFFFFF"
   stroke="none"
   d="M39.162,27.812H7.059v-7.913h32.103V27.812z" />


        <linearGradient
   id="path225_1_"
   gradientUnits="userSpaceOnUse"
   x1="-190.8691"
   y1="300.7178"
   x2="-190.8691"
   y2="330.2731"
   gradientTransform="matrix(0.3069 0 0 -0.3101 81.6819 119.6117)">
          <stop
   offset="0"
   style="stop-color:#FFFFFF"
   id="stop218" />


          <stop
   offset="1"
   style="stop-color:#CCCCCC"
   id="stop219" />


          
          
          
        </linearGradient>


        <path
   id="path225"
   fill="url(#path225_1_)"
   stroke="none"
   d="M7.385,22.834c0-1.293,1.038-2.342,2.318-2.342H38.28      c0.313,0,0.61,0.063,0.882,0.177v-0.771H7.059v7.913h0.326V22.834z" />


      </g>


    </g>


    <linearGradient
   id="path232_1_"
   gradientUnits="userSpaceOnUse"
   x1="14.1377"
   y1="12.6128"
   x2="4.2627"
   y2="2.7378">
      <stop
   offset="0"
   style="stop-color:#FB7462"
   id="stop225" />


      <stop
   offset="1"
   style="stop-color:#FFFFFF"
   id="stop226" />


      
      
      
    </linearGradient>


    <path
   id="path232"
   fill="url(#path232_1_)"
   stroke="none"
   d="M8.45,18.411c4.288-7.016,11.965-11.692,20.725-11.692    c2.281,0,4.488,0.318,6.582,0.911c-3.458-3.244-8.089-5.229-13.18-5.229C11.875,2.401,3.2,11.168,3.2,21.983    c0,2.837,0.598,5.53,1.671,7.965c0.094-1.738,0.369-3.429,0.802-5.052v-6.485H8.45z" />


  </g>


</g>

</svg>
