/* XPM */
static const char * error_small_xpm[] = {
"150 115 65 1",
" 	c None",
".	c #5F605E",
"+	c #505352",
"@	c #454745",
"#	c #727271",
"$	c #7F807F",
"%	c #909192",
"&	c #C3C3C6",
"*	c #FDFFFC",
"=	c #F4F2F6",
"-	c #2E2F2D",
";	c #E8E6EA",
">	c #DFE0EA",
",	c #D6D7DF",
"'	c #7B9FC3",
")	c #5A7EA3",
"!	c #A8A9AD",
"~	c #050C19",
"{	c #081933",
"]	c #071F5B",
"^	c #266BF5",
"/	c #2E79F5",
"(	c #3684F5",
"_	c #4699FC",
":	c #5589C0",
"<	c #3C5C7C",
"[	c #2E5B9A",
"}	c #1558F0",
"|	c #003CEC",
"1	c #000300",
"2	c #5BAEFD",
"3	c #002BA8",
"4	c #5088D2",
"5	c #272D33",
"6	c #9B0300",
"7	c #A93937",
"8	c #D05D5A",
"9	c #FC7D6D",
"0	c #FC8E7F",
"a	c #FC6E5D",
"b	c #FB6354",
"c	c #BD2221",
"d	c #71A9DD",
"e	c #FDA99D",
"f	c #D02D2B",
"g	c #88CAFF",
"h	c #F39C93",
"i	c #F7B9AD",
"j	c #FC584D",
"k	c #8FB6D9",
"l	c #191B19",
"m	c #991E1E",
"n	c #07369F",
"o	c #312E09",
"p	c #FB4B44",
"q	c #585310",
"r	c #968E1B",
"s	c #E83935",
"t	c #92555F",
"u	c #FC413C",
"v	c #7D4153",
"w	c #872A38",
"x	c #DC2020",
"y	c #F92C2D",
"z	c #A5D7FE",
"                                                                                                                                                      ",
"                                                                                                                                                      ",
"                                                                                                                                                      ",
"                                                                                                                                                      ",
"                                                                                                                                                      ",
"                                                                                     .............+..+.++.++++++++++++++++++++++@+@+@@@@@@@@@@        ",
"                                                                                    ..#$%$$$$$$$$$$$$$$$$$$$$$$$$$$$$#$#$#$####$#$#$#$$#$###@@        ",
"                                                                                    ..&******************************************=****=****=$@-       ",
"                                                                                    ..&**==*=*==*======================;=;=;=;=>==>=;=;=;;=*%@-       ",
"                                                                                    ..&*=**=*=**=*==============;=;;;;;=>=>=>=>;;>;>;;>>>;;*%@-       ",
"                                                                                    ..,*============*======;=;==;=====>=;=>=>=;=;=>=>;=>=>==%@-       ",
"                                                                                    ..&***,,,,,,,,,,,,,,,,,,,,,,,,,,,,,,,,,,,,,,,,,,,,,,>>=*%@-       ",
"                                                                                    ..&*==,&%%%%%%%%%%%%%$%%%%$%%%$'$%%%%%%%%)%%%%%%%%%,,>;*%@-       ",
"                                                                                    .#&**>,!~{{{{{{{{{{{{{{{{{{{{{{{{{{{{{{{{{{]{]{]{{~,,>=*%@-       ",
"                                                                                    ..&*==,%{^///((_(_____:@@<[__(_(///^^^}}}|||||||||1,>>;*%@-       ",
"                                                                                    ..&*==,!~/((_______2:<@@@@@[[____((//^^^}}}||||||3~,,>==%@-       ",
"                                                                                    ..,*==,%{((____2222<@@+!;.@<<4____(((//^^}}}||||||1,>>==%@-       ",
"                                                                                    ..&*==,!~(____222<@@@%;**&@@<[42____((//^^}}}||||31,,>;*%@-       ",
"                                                                                    ..&*==,!~__2222)+@+#;*=;==#@+):22____((//^^}}|||||1>>>==%@-       ",
"                                                                                    .#&*==,!~__22:+@+.&**;>>;*,@5<::222___((//^}}}|||31,>>;*%@-       ",
"                                      6666666666                                    ..&*==>!~222<+++!**;;;;>;=*%@@<:222____(///^}}}|||1,>>==%@-       ",
"                                 66666666666666666666                               ..&*=>>!~2<@++%=*=>=>=>>>>*=+-<):2222__((//^^}}||31>>>=*%@-       ",
"                             6666678980009999aaabcc66666                            ..,*==>!5+++$;*=;;>>>>,,>>=*&@@<)d222_2_((//^^}}||1>>>;*%@-       ",
"                           666680e0000909999a9aa999afc6666                          ..&*=>!+++#,**;=;=;>,>!&,;>==.@@):g2222__(//^^}}}31>>>==%@-       ",
"                         6668hhhh0h0000909a9aa9aaa99a9abc666                        ..&*&#++.&**;;>=>>,,&<1#,,>;*,@@<):2222___(/^^}}|}1>;>==%@-       ",
"                       6668eeheh0e00009999aa9aa9aaaa9aa9abc666                      ..&%+++!=*=>==>>,,,$1]3~!>>>=*$@@):g222___((/^^}}31;>>;*%@-       ",
"                     6668ieeeh0e000000999a9aa9a9a9aa9aaa9aabc666                    .++++%;*=;;;>;>,,%{{3||]5>>>>*=+@<)'2222__((/^^}}}1>>>==%@-       ",
"                    668eieeee0h0h0009999a9a9a9aa9a9aa9a9a99aajc66                   +++$,=*;;==>>,,!@13|||||~%,;>;*!@@<:dg222__(//^}}31>;>;*%@-       ",
"                   66hihieehe0e00000999aaa9aa9aaa9a9aaa9aa9a9abf666               +++#&**===>=>,,k.~]|||||||3l,>>>**.@+):2222__((/^^}}1=>>==%@-       ",
"                  6mieieeee0e000099999a9a9aa9a9a9a9a9aaaaaaaaa9aj666            ++..!====;;;>,,,#1]}|||||||||{#,>;;*&@@<<)222__((/^^}31>;>;*%@-       ",
"                667eieihehh0h00000999aaa9a8aaaabbbbbbbbbbbbbbbaaajc66         +.++%=**=;==>>,,%~{3}}}||||||||3~&>>;=*$@-11)222_((/^^}}l>>>==%@-       ",
"               668iieihehehh00009999a9a9aaaabbbbbbjjbbbjbjbjjjjjjjjc66       .++%;**=;==;>,,!5~n^^}}}}}}||||||]+,>>>*;++o1<22___(//^^31=;>>*%@-       ",
"              66hieihehh00000009999aa9abbababbbbbbjbjjbjjjjjjjjjjpjjf66    ++.#&**===;;>,,k+~]/^^^^^^^}}}}|||||~!>;>=*!@@1<422_((/^^^}1=>>==%@-       ",
"              68ieieeeeee0h0009999aaabaabbbbbbbbbbbbbbjbjbjjjjjjjjppjf66#.+..&**==;==>>,&#l]////////^^^^^}}}}||n5,>>,*=.@-<:22__(/[]]nl>;;>*%@-       ",
"             67iieeeeh00h00009999aaaababbbabbbbbbjjjjbjjjjjjjjjpjjjpjpf6m#.!=======>>,,#~{((((((((/////^^^}}}}||~$>;;;=&@@5<<[4((n1q~n1=>>==%@-       ",
"            6meiieeehee000090999aa8bbababbbbbbbjbbbbjjbjjjjjjjpjpjpjpjpc67&;*=====>!$+5l][4__(_((_(((////^^}}}}}31,>>>=*#@5111<_([1r1n~;;>==%@-       ",
"           6ceieeeehh0h0000999ababbaabbbbbbbbbbjjjjbjjjjjjjjjjjjpjppppps66t;,===>,&+@@@@<[[[________(((////^^}}}|].;;;;*;@@l11[((/111nl=>>;*%@-       ",
"          66hieihee0e00000999aaaaabbabbbbbbbbjbbbbjjbjjbjjjjpjpjjpjjppppp66i&;>,,k+@.!+@@@<[[442_______((//^^^}}}3~!>>>;=%@-o1{_/[111n1=;>>*%@-       ",
"          68ieeeehhe0000099aaaababbbbbbbbbbjbjbjjbbjjjjjjjsjpjppjppppppppf67!&&,$5@@>==!@@@<<)4:222_____(((//^^}}}n-;>>>*=.@@1{([{~o1]1=;>;*%@-       ",
"         6mhiieee0h0000099aaaaabaabbabbabbjbbbjbjjjjjjjjjjjjjjjjjppjppjppp66%!!5{+@%====>%@@@<<<:42222____((///^}}}~%=>;;*&@+l{(~11r111=;;>*%@-       ",
"         68eehehh0e0000999abababbbbbbajbbbbbbbbjbjjjbjjjjjjjppppppjpjpppups6m#@)[++==;>==*,#@@@<<:::222____((//^^}}n~;>>>=*#@-{[{1111~1==>>*%@-       ",
"        6ceeee0e0h000099abaaababaaaabbbbbbbjjjjjjbjjjjjjjpppjjjjjpppppppppuc6v::.@&*=>=>;=**&.@@@<)::2222___((//^^}}{#=>;;=;++{[~11111l=>>;*%@-       ",
"        68ieehe0e000099abaabababbbj8jbbbbjbbbbbjjjjjjsjjjjjpppppppppppuppuus6m'%.#*=>>;>;;;===!+@@@<)):222___((/^^}^3~&=>;;*%@@11111111==>;=%@-       ",
"       6meehehh0000999aaaaabab8abbjbbbbjbbjjjjjjjjjjjjjppjjjjppjppppppppupuuc6v##&=>=>,,,>>;==*;%@@-<<)::22___((//]1]]@;;>;*=+@51111111=>>>*%@-       ",
"       68eeh00e000009baababbbbjbbbbbbbjbjbbjjbjbjjjjjjjjppppjppppjupppupppuuu6m#%,,;;>,!,,,>;;==*,$@@@<<<:42___(/{lr1n~!>>>;*!@@1111111==>>*%@-       ",
"      6cheee0h000999aba8abaaabbbabbbjbbjbjjbjjjjjjsjjpjjjjjpppjpppuppppuuupsuc6t&&&>>,,~5!,,>>>>=**&.@@@l{::___((/1o1~nl;=>>=*#@-111111=;>;*%@-       ",
"      6che0e0000099ababababbbabbbbbjbjbjbjjbjjbjjjjjjpppppjpjppppppupupppuuuuf6w&&&,,,.{3~@&,>>>;;=*=!+@@@<<:44(((]111]{#=;>;*,@@l11111==>>*%@-       ",
"      680eh0000099aaaaabababbbbbbbjbj8jbjbbjjjjjjjjppjjpppspuuupupupupuuuuuuus66&&&&,!~3||]~.,>>>>;==*=%@@@5<{1<_(/~1o1~1,=>,=*%@-11111=;>;=%@-       ",
"     66hh000000999aaaabaabbabbbbjbbbjjjjjjjjjjjjjpjspuuuuuuuuupuuuuuupuuppuuuu66!&!&&5]|||||]1$>>>>>>==*;$@+@l1~[(({1r11{+==,>==+@l1111==>>*%@-       ",
"     6c0e0h009999bbabbabbbbbbbjabbjbjbjjjjjjjjjpspupusuppupusuusuuuuuuuuuuuuuux68&&!!~|||||||3{5!>>>>>>=*=,#@@@l{[]111111~%=>>;*!+@$!,*=;,;*%@-       ",
"     68000000999aaaaabbbabbbb8jbjbbjbjbbjjjjjssppuuuupuusuuusuuuusususuxusuuups67,!!@n|||||||||31@&>>>>>>==*&+@@-<[~1111111==>>*=#@+%!;=;>>=%@-       ",
"    6690h09aa9abaabbab8babajjbbbjbjbjjjjjjjjpppupppppuppuspuppsusuusuuuusuxusyu6m&&%+3|||||||||||]~.,;;;>>;===!@@-<{1111111@=>>>=,@@.%&>>>;*%@-       ",
"    6600009aa9aaa8aaaabaaabaabababab8jbbabbjjjjjjjjjjpjjjjjjjpjpjppppppsuuuusyuc6!!+[^|||||||}|||||]1$>;>>>>;*=;%@@@-1111111&=>;;*$++$%,,>>*%@-       ",
"    6690099b0iiiiiiiiiiiiiiiiiiiiiiiiiiiiiiiiiiiiiiiiiiiiiiiiiiiiiiiiiii8suxusyxct.v4[}}}}}}}}}}}}|}3{l!>=>>>>==*,#@@@l111115==,;=>@@+%!,,;*%@-       ",
"    6600099b0,,,,,>,>,,>,>>>>>>>,>>>>>,,,,,>>>;;;,;,;,;;;;,;;;;;;;;,;,;;&xuxusux6t@([4/}}}}}}}}}}}}}|}n~-&=;;;;;;**&.@@-l1111%*>,=*!@@#%,,>=%@-       ",
"    660999aa0,;;*******=*==*===*=*=*************************************hssssxuf6w<(4[4^^^^^^^^^^^}}}}|}]~.,;>>>;>===!+@@-11l!;=>>==.@+$!,;*%@-       ",
"    6c0999aa0;;********************=*=**=*******************************hfususyx6w[([:(/^/^//^^^^^^^^^}}}3]1$>=>;>>;=*=%@@@+$%!!,>>=&@@<%&>=%@-       ",
"    6c9999aa0;******************************=***************************hxsxsxux6w(44)4(///////////^^^^}n1]3{l!==;>>>;==;$@@@.#%%&,==$@+$%>=%@-       ",
"    6c99a9ab0;**********************************************************ifsssuuy6w444'44/(_((((((/(//^^/1ql1]n1-&==;>>>;==&#@@@.$%!&=;@@.%&=%@-       ",
"    6c99aaab0;********************************************************==hssxxsyy6w(44':4(_(___(_((((//(n1q11111{~+&==;>>>===!++@+.%%!=!@+#%;%@-       ",
"    6ca9a9ab0**********************************************************=hfssssxs6w444'4d__________(_(((/({11lq111~1-;==>>,>===!@@@+#%!&+@.%&$@-       ",
"    669aa9ab9=**********************************************************hfxfssyxcw4'4':d_2_222_2_____(((//n~lo111~111.===>>>>==>$@@@.#!%5@#!$@-       ",
"    66a9aaab0*=*********************************************************ifsxfxux6v_dd''d2222222222_____(((({11111111111%*=,>>>>==,#5+@.%@5@%.@-       ",
"    66a9a9ab0*********************************************************=>hfsxssyfct4:d''d22222222222222{~4((]11111111111%=>>>>>>>===&v@@+#--++--       ",
"    66aaaaab9=**********************************************************hcffssyc6)ddd'kk2gggg2g2~<222:111{4/({11111111-==>,,,>,>>>=*=!@@@@5--5-       ",
"    66c99abb0**********************************************************=hffsfyy6c'ddk'dk2g22ggg<1o~<2~11ol1{(/11111111&=,>,>>>,,,>,>==;%@@@-5ll       ",
"     6fa9abb9***********************************************************hffxfyy66:kdk'kkggggg2d1lr111111qo111{1111111+==>>,,,>>,,>>>,>==,#@@-111      ",
"     66aaabb0*=********************************************************=hfffsyxcwddkk!kdgggggggd51qql1111111111111111==>,>>>>,>,>,,,>>>;==.@-l11      ",
"     66a9bbbb888888888888888888888888888888888888888888888888888888888887ffxuyx6tdkdkkkkgggggzggg'51qql1111111111111$*>,>,>,,>>,,>>,,,>;*,@@-l11      ",
"     66cabbbbbbbjbjjjjjjjjppuppspspsssssssssssfsfsffffffffffffffffffffffffffyy66'kkkk!kgzgzzzgzgggg)11r111111111111l==>>>>>,>,>,>,,,>,>==#+-l11       ",
"      6cabbbbbjbjbbbjjjjjpupuuuspspspssssfsfssfsfsfsffsfffffffffffffffffffffyx6mdkkkk!kzgzggzz'gzgggg<1111111111111&=>>,,>,>>,>>,>>,>,=*!@@l111       ",
"      66bbbbbbbjjjjjjjjjjppupsppspspssjsjssjfsfjffjfsfffffffffffffcffcfffffxyxcvkkkkkkkzzzzzzg11)zzgggl11111111111@==>>>>>,>,>,>,,,,,>==.@-11         ",
"      66fbbjjbbbjjjjjjjjjpppppsuspssssfsffjfsfffsfffffbfffffffcfcffcfffcfffuy66'kkkk!kzzzzzzz+~115'zg<111111111111;=>,>>>,>>,>,>,>>>,=*%@@11          ",
"       6cjbbjbjjbjjjjjjppuusupspssjssjspsffjfjfbfffbffffffffffcffcffcfcfcfxyx6mkkkkk!kzzz>>zz511qq15'111111111111#*>>>,>>>,>,>,>>,,,>=;+@l1           ",
"       66fjbjbjjjjjjjjjjppupuspspssssffjfjffffffffffcffff8ffcfffcfcffcfcffyyc6)kkkk!k&z*;==;;z$~11~11~1111111111l==>>>>,>>,>,>,>,>>>=*#@@1            ",
"        6cbjbjbjjjjjjjjppupsspssssjssjssfsfsfjffbfffcbcfffcf8cccfcfccfcfcsyx6mkkkkz!k&;;*>;*==>5l111r1lr11111111!=>>>,>>>,>>>,>,>,,;*&@@l             ",
"        66fjbjjbjjjjpjjppuupupsjsssfsfsfjfjffffffff8fcf7ffcfcff7fccfcccffyy66)kkkk!kk;=>==;===!~r151o1111111111-*=>>>>>>>>>,>,>,>>>*=.@5              ",
"         6cjjjjjjjjjjjpppspsssssspsssjsfffsffjfffffffffffcfccffcfccccfccxyxcwkkkkk!k&;;*;=====#1ooq111111111111;=>>>>,>,>,>,>,>>,,==!@+1              ",
"         66cbjjjjjjppjjpuupuppssssjfsfssjffjfffbcfffcffcf7ffc7fcccfccccfyy66'kkkkk&k,*;*;=*;*=*&5loqol11111111.*;>>>>>>>>>,>>>,>>>=;+@-               ",
"          66jjjjjjpjpjppsussssjssssfjsffsfffffffffffff7fff7cffcf7f7cccfyyx6vkkkkkk!kz===*>===**>z'~oo111111111==>>>>>>>,>>>>,>,,>=*$@@                ",
"          666jjjjjjjpjpppuppsssssjfsffjffjff8fff8ff8cffcfcfccc7fccccccuyx66'dkkk&kkz>*==***=*==zzzz5~11111111!*>;>>>>>,>>,>,>>>,;*&+@l                ",
"           66cjjjjpjpjppspsspsjssspfjfsfffffffffcfffffcfcccfccccccfmcuyx66)dkkkkk!kzz>=====*=**>zz'111111111-*=;>>>,>>>>>>>,>,>>**.@@                 ",
"            66fppjjpjpppspspsssssfsssfsjffjffffffccccf7fcf7cccccc7ccsyy66vddk'kk!kzzzz****=***zkzz-111111111,=>>;>>>>>>,>,>>>,>==!+@1                 ",
"             66fjjjpjppuususssssfjffjfffffffffff8fffcff7ccf7cc7ccccfyyc6vddddkk!kkzzzzz=*+!**z%1-<111111111+*;;>>>>>>>>>>>>,>>>*;++-                  ",
"              66spjppjpsususpsssssssffjfjffff8ffcf7fccffccccccccmcsyyx6m5+)ddk'kkkzzzzzz'115'zlol1111111111==>;>;>>>>>>>>,>>,>=*%+@                   ",
"               66fpjppppspssssjssfjfsfffffffffcfffffcf7cccf7cmcccxyy66m&&$@+''kkkggzzzzzlq1115lq1q11111111%*;>>;>;>>,>>>>,>>>>*&++l                   ",
"                66sjpjuusppssssfssffsfjfffffffffccc7fcfc7ccccc7cuyyc6m!,&&!#+$'kggggzzzklqlq11111r1111111l==;>>>>>>>>>,>>>>,>=*#+@                    ",
"                 66cppppssspssssjfssffffs8ffffcf8cffccccfmfmccfyyx667&,&,,&&!.@<gggzggzzz$lq1111111111111,*>>>>;>;>>>>>>>>>>=*!@+1                    ",
"                  666ppuusssssssfsfssfsfffffcfcfcfccc7fmfcccmsyyx66w&;,,&,&!&&%5l'ggzggzgk1511qo11111111@==;;>>>>>>>>>>>,>,>*=.+-                     ",
"                   666sspspssssssjfjfffsfff8fffcf7ccfcccc7cfyyyx66t$#%&,,&&&,,>>$~5dggzgz51115ol11111111==>>>;>;>;>>>>>>>>>=*%+@                      ",
"                    666cxsspssssfsfffjfffffffcffffccc7fmffuyyx666  #$#$!&&&,,=;>;,.1<dgz'~1111l11111111$*=>;>;>;>>>>>>>>>>>*,++-                      ",
"                      666fssssfssfssfffffffff7fccc8ccccfsyyx666m    $$#$%!,======;=&@l<g~r111111111111l==>;>;>>>;;;>>>>>>>**#+@                       ",
"                        666csssssffsffsfffffffffccccfsuyyx666m        %$##$;**===;==>!-~~q1q1111111111&*;>>>;;>>>>;>>>>>>;*!++1                       ",
"                          666cfssssfsffffffffcccfssuyyxx666m        %%% $...%;*====;===%lllq111111111@==>;;;>>;>>;>>;>>>>*=..-                        ",
"                           m6666ccspsspsfsffsspsuyyxc6666mt       %%!     ....!**===>===>$15111111111;=;>;>>;>;>>>;>>>>>=*%++1                        ",
"                             tm66666ccffsssssxfxc66666m7         !%         ....&*=*=>=;==,.11111111#*=;;;>;>>>;>;>>;,;;*;.+5                         ",
"                                twm666666666666666mmw         %%%             ...$&**==>=>==!111111l==>;>;>>;;>>>>;>>>>=*#.@                          ",
"                                    %twwmmmmmm7w           %%%!                 ...%;**=;=>===#1111!*;;;;;;;;>>;>>>>;>=*&++l                          ",
"                                       %!%%%           %%%!%                     ....!=**;=;====+1-*=>=>>;>>;>>;;>;>>>*=#+@                           ",
"                                          %!%%%%%%%%%%%!%                          ....!**==>;===,>=;>>=>=>;>;;>>;>>;==!++1                           ",
"                                                                                     ...#&**=;;;=*==>=>>>>;;>;>>>>>>;*;.+-                            ",
"                                                                                       ...$,**=;;;==>>=>=>;;;>>;;>;;=*$++                             ",
"                                                                                        ....%=**;>>;;>;>>=>>;;>>;>>=*&.+l                             ",
"                                                                                          ....!=*==>=>=;;>;;>;;>>>>==#.@                              ",
"                                                                                            ...#&**=>>;;>;;>;>;;;;=*!.+1                              ",
"                                                                                              ...$,**=>=>=>;>;>>>;*;..-                               ",
"                                                                                                ...%;*==>>=>;;>=>=*%.+                                ",
"                                                                                                 ....!=*=;>>;>>>=*&..l                                ",
"                                                                                                   ...#&=*=;;;>>**#.@                                 ",
"                                                                                                     ...$&**=>;=*!..1                                 ",
"                                                                                                       ...%;*==*=..-                                  ",
"                                                                                                        ....%=**%.+                                   ",
"                                                                                                          ...#!&..5                                   ",
"                                                                                                            .....@                                    ",
"                                                                                                              ..+                                     "};
