/* XPM */
static const char * img1_xpm[] = {
"37 50 3 1",
" 	c None",
".	c #000000",
"+	c #FFFFFF",
"                                     ",
"                                     ",
"                                     ",
"                                     ",
"                                     ",
"                                     ",
"                                     ",
"                 ...........         ",
"             .....+++++++++.         ",
"           ...+++++++++++++.         ",
"           .++++++++++++++..         ",
"           .++++++++++++++.          ",
"          ..+++....+++++++.          ",
"          ......  .+++++++.          ",
"          ..      .+++++++.          ",
"                  .+++++++.          ",
"                 ..++++++..          ",
"                 .+++++++.           ",
"                 .+++++++.           ",
"                 .+++++++.           ",
"                 .+++++++.           ",
"                 .++++++..           ",
"                ..++++++.            ",
"                .+++++++.            ",
"                .+++++++.            ",
"                .+++++++.            ",
"                .+++++++.            ",
"               ..++++++..            ",
"               .+++++++.             ",
"               .+++++++.             ",
"               .+++++++.             ",
"               .+++++++.             ",
"               .+++++++.             ",
"              ..++++++..             ",
"              .+++++++.              ",
"              .+++++++.              ",
"      .........+++++++.........      ",
"      .+++++++++++++++++++++++.      ",
"      .++++++++++++++++++++++..      ",
"      .++++++++++++++++++++++.       ",
"     ..++++++++++++++++++++++.       ",
"     .........................       ",
"                                     ",
"                                     ",
"                                     ",
"                                     ",
"                                     ",
"                                     ",
"                                     ",
"                                     "};
