/* XPM */
static const char * img2_xpm[] = {
"42 50 3 1",
" 	c None",
".	c #000000",
"+	c #FFFFFF",
"                                          ",
"                                          ",
"                                          ",
"                                          ",
"                                          ",
"                                          ",
"                                          ",
"                   ..........             ",
"              ......++++++++....          ",
"            ...++++++++++++++++..         ",
"            .+++++++++++++++++++..        ",
"            .++++++++++++++++++++..       ",
"            .++++.........++++++++.       ",
"            .+....       ..+++++++..      ",
"           ....           ..+++++++.      ",
"           .               .+++++++.      ",
"                           .+++++++.      ",
"                           .+++++++.      ",
"                           .++++++..      ",
"                          ..++++++.       ",
"                          .++++++..       ",
"                         ..+++++..        ",
"                        ..++++++.         ",
"                       ..++++++..         ",
"                      ..+++++...          ",
"                     ..+++++..            ",
"                   ...+++++..             ",
"                  ..++++++..              ",
"                 ..+++++...               ",
"               ...+++++..                 ",
"              ..++++++..                  ",
"             ..++++++..                   ",
"            ..++++++..                    ",
"          ...+++++...                     ",
"         ..++++++..                       ",
"        ..+++++++.                        ",
"       ..++++++++...............          ",
"       .+++++++++++++++++++++++.          ",
"       .+++++++++++++++++++++++.          ",
"       .+++++++++++++++++++++++.          ",
"      ..++++++++++++++++++++++..          ",
"      .+++++++++++++++++++++++.           ",
"      .........................           ",
"                                          ",
"                                          ",
"                                          ",
"                                          ",
"                                          ",
"                                          ",
"                                          "};
