/* XPM */
static const char * img4_xpm[] = {
"44 50 3 1",
" 	c None",
".	c #000000",
"+	c #FFFFFF",
"                                            ",
"                                            ",
"                                            ",
"                                            ",
"                                            ",
"                                            ",
"                                            ",
"                         ...........        ",
"                        ..++++++++..        ",
"                       ..+++++++++.         ",
"                       .++++++++++.         ",
"                      ..++++++++++.         ",
"                     ..+++++++++++.         ",
"                    ..+++++++++++..         ",
"                   ..+++...++++++.          ",
"                  ..+++.. .++++++.          ",
"                 ..+++..  .++++++.          ",
"                ..+++..   .++++++.          ",
"               ..++++.    .+++++..          ",
"               .++++..   ..+++++.           ",
"              ..+++..    .++++++.           ",
"             ..+++..     .++++++.           ",
"            ..+++..      .++++++.           ",
"           ..+++..       .+++++..           ",
"          ..+++..       ..+++++.            ",
"         ..+++..        .++++++.            ",
"        ..+++..         .++++++.            ",
"        .++++.          .++++++.            ",
"       ..++++.          .++++++.            ",
"       .+++++............++++++......       ",
"       .+++++++++++++++++++++++++++.        ",
"       .+++++++++++++++++++++++++++.        ",
"      ..+++++++++++++++++++++++++++.        ",
"      .++++++++++++++++++++++++++++.        ",
"      .................++++++.......        ",
"                      .++++++.              ",
"                      .++++++.              ",
"                      .++++++.              ",
"                      .+++++..              ",
"                     ..+++++.               ",
"                     .++++++.               ",
"                     ........               ",
"                                            ",
"                                            ",
"                                            ",
"                                            ",
"                                            ",
"                                            ",
"                                            ",
"                                            "};
