/* XPM */
static const char * img5_xpm[] = {
"43 50 3 1",
" 	c None",
".	c #000000",
"+	c #FFFFFF",
"                                           ",
"                                           ",
"                                           ",
"                                           ",
"                                           ",
"                                           ",
"                                           ",
"              .......................      ",
"              .++++++++++++++++++++..      ",
"              .++++++++++++++++++++.       ",
"             ..++++++++++++++++++++.       ",
"             .+++++++++++++++++++++.       ",
"             .+++++++++++++++++++++.       ",
"             .+++++.................       ",
"             .+++++.                       ",
"            ..++++..                       ",
"            .+++++.                        ",
"            .+++++.                        ",
"            .+++++.                        ",
"            .+++++..........               ",
"           ..++++++++++++++...             ",
"           .+++++++++++++++++...           ",
"           .+++++++++++++++++++..          ",
"           .++++++++++++++++++++..         ",
"           .++..........+++++++++.         ",
"          .....        ..++++++++..        ",
"          ..            ..++++++++.        ",
"                         ..+++++++.        ",
"                          .+++++++.        ",
"                          .+++++++.        ",
"                          .+++++++.        ",
"                          .++++++..        ",
"                          .++++++.         ",
"                         ..++++++.         ",
"       .                ..++++++..         ",
"       ...             ..+++++++.          ",
"       .+.....       ...+++++++..          ",
"       .+++++.........++++++++..           ",
"      ..+++++++++++++++++++++..            ",
"      .++++++++++++++++++++...             ",
"      ...++++++++++++++++...               ",
"        .....+++++++++....                 ",
"            ...........                    ",
"                                           ",
"                                           ",
"                                           ",
"                                           ",
"                                           ",
"                                           ",
"                                           "};
