/* XPM */
static const char * img6_xpm[] = {
"41 50 3 1",
" 	c None",
".	c #000000",
"+	c #FFFFFF",
"                                         ",
"                                         ",
"                                         ",
"                                         ",
"                                         ",
"                                         ",
"                     .........           ",
"                  ....+++++++....        ",
"                ...+++++++++++++...      ",
"              ...++++++++++++++++.       ",
"             ..++++++++++++++++++.       ",
"            ..+++++++.........+++.       ",
"           ..++++++...       .....       ",
"          ..+++++...            .        ",
"         ..+++++..                       ",
"         .++++++.                        ",
"        ..+++++..                        ",
"        .++++++.                         ",
"       ..+++++..                         ",
"       .++++++.    .......               ",
"      ..++++++.  ...+++++....            ",
"      .+++++++....++++++++++..           ",
"      .++++++++++++++++++++++..          ",
"      .+++++++++++++++++++++++..         ",
"     ..++++++++++......++++++++.         ",
"     .+++++++++...    ..+++++++..        ",
"     .++++++++..       ..+++++++.        ",
"     .++++++++.         .+++++++.        ",
"     .+++++++..         .+++++++.        ",
"     .+++++++.          .+++++++.        ",
"     .+++++++.          .+++++++.        ",
"     .+++++++.          .++++++..        ",
"     .+++++++.          .++++++.         ",
"     ..++++++.         ..++++++.         ",
"      .++++++.         .++++++..         ",
"      .++++++..       ..++++++.          ",
"      ..++++++..    ...++++++..          ",
"       ..++++++......+++++++..           ",
"        .++++++++++++++++++..            ",
"        ..++++++++++++++++..             ",
"         ...++++++++++++...              ",
"           ....++++++....                ",
"              ........                   ",
"                                         ",
"                                         ",
"                                         ",
"                                         ",
"                                         ",
"                                         ",
"                                         "};
