/* XPM */
static const char * img9_xpm[] = {
"39 50 3 1",
" 	c None",
".	c #000000",
"+	c #FFFFFF",
"                                       ",
"                                       ",
"                                       ",
"                                       ",
"                                       ",
"                                       ",
"                 ........              ",
"              ....++++++....           ",
"            ...++++++++++++...         ",
"           ..++++++++++++++++..        ",
"          ..++++++++++++++++++.        ",
"         ..+++++++......++++++..       ",
"        ..++++++...    ..++++++..      ",
"        .++++++..       ..++++++.      ",
"       ..++++++.         .++++++.      ",
"       .++++++..         .++++++..     ",
"       .++++++.          .+++++++.     ",
"      ..++++++.          .+++++++.     ",
"      .+++++++.          .+++++++.     ",
"      .+++++++.          .+++++++.     ",
"      .+++++++.         ..+++++++.     ",
"      .+++++++.         .++++++++.     ",
"      .+++++++..       ..++++++++.     ",
"      ..+++++++..    ...+++++++++.     ",
"       .++++++++......++++++++++..     ",
"       ..+++++++++++++++++++++++.      ",
"        ..++++++++++++++++++++++.      ",
"         ..++++++++++....+++++++.      ",
"          ....+++++...  .++++++..      ",
"             .......    .++++++.       ",
"                       ..+++++..       ",
"                       .++++++.        ",
"                      ..+++++..        ",
"                      .++++++.         ",
"                     ..+++++..         ",
"      .            ...+++++..          ",
"      ....       ...++++++..           ",
"     ..++.........+++++++..            ",
"     .++++++++++++++++++..             ",
"     .++++++++++++++++...              ",
"     ..+++++++++++++...                ",
"      ....+++++++....                  ",
"         .........                     ",
"                                       ",
"                                       ",
"                                       ",
"                                       ",
"                                       ",
"                                       ",
"                                       "};
